<?xml version="1.0" encoding="UTF-8" standalone="no"?>
<svg
   xmlns:dc="http://purl.org/dc/elements/1.1/"
   xmlns:cc="http://creativecommons.org/ns#"
   xmlns:rdf="http://www.w3.org/1999/02/22-rdf-syntax-ns#"
   xmlns:svg="http://www.w3.org/2000/svg"
   xmlns="http://www.w3.org/2000/svg"
   xmlns:sodipodi="http://sodipodi.sourceforge.net/DTD/sodipodi-0.dtd"
   xmlns:inkscape="http://www.inkscape.org/namespaces/inkscape"
   version="1.1"
   id="Capa_1"
   x="0px"
   y="0px"
   viewBox="0 0 490 490"
   style="enable-background:new 0 0 490 490;"
   xml:space="preserve"
   sodipodi:docname="ac.svg"
   inkscape:version="1.0.2-2 (e86c870879, 2021-01-15)"><metadata
   id="metadata65"><rdf:RDF><cc:Work
       rdf:about=""><dc:format>image/svg+xml</dc:format><dc:type
         rdf:resource="http://purl.org/dc/dcmitype/StillImage" /></cc:Work></rdf:RDF></metadata><defs
   id="defs63" /><sodipodi:namedview
   pagecolor="#ffffff"
   bordercolor="#666666"
   borderopacity="1"
   objecttolerance="10"
   gridtolerance="10"
   guidetolerance="10"
   inkscape:pageopacity="0"
   inkscape:pageshadow="2"
   inkscape:window-width="3840"
   inkscape:window-height="2066"
   id="namedview61"
   showgrid="false"
   inkscape:zoom="2.0571429"
   inkscape:cx="245"
   inkscape:cy="245"
   inkscape:window-x="-11"
   inkscape:window-y="-11"
   inkscape:window-maximized="1"
   inkscape:current-layer="Capa_1" />
<g
   id="g28"
   style="fill:#8cfff3;fill-opacity:1">
	<g
   id="g26"
   style="fill:#8cfff3;fill-opacity:1">
		<g
   id="g24"
   style="fill:#8cfff3;fill-opacity:1">
			<g
   id="g4"
   style="fill:#8cfff3;fill-opacity:1">
				<path
   d="M409.9,257.926H79.1c-43.7,0-79.1-35.4-79.1-79.1v-145.6c0-11.4,9.4-20.8,20.8-20.8h448.4c11.4,0,20.8,9.4,20.8,20.8      v145.6C489,222.526,453.6,257.926,409.9,257.926z M40.6,54.026v124.8c0,20.8,17.7,38.5,38.5,38.5h330.8      c20.8,0,38.5-17.7,38.5-38.5v-124.8H40.6z"
   id="path2"
   style="fill:#8cfff3;fill-opacity:1" />
			</g>
			<g
   id="g8"
   style="fill:#8cfff3;fill-opacity:1">
				<path
   d="M386,169.526H103c-11.4,0-20.8-9.4-20.8-20.8s9.3-20.8,20.8-20.8h283c11.4,0,20.8,9.4,20.8,20.8      S397.4,169.526,386,169.526z"
   id="path6"
   style="fill:#8cfff3;fill-opacity:1" />
			</g>
			<g
   id="g22"
   style="fill:#8cfff3;fill-opacity:1">
				<g
   id="g12"
   style="fill:#8cfff3;fill-opacity:1">
					<path
   d="M119.6,477.426c-11.4-2.1-17.7-13.5-15.6-23.9c5.2-22.9,0-34.3-6.2-48.9c-7.3-17.7-16.6-40.6,0-74.9       c5.2-10.4,16.6-14.6,27-9.4s14.6,16.6,9.4,27c-8.3,17.7-5.2,26,1,41.6c6.2,16.6,15.6,38.5,8.3,73.9       C141.5,471.226,133.6,478.326,119.6,477.426z"
   id="path10"
   style="fill:#8cfff3;fill-opacity:1" />
				</g>
				<g
   id="g16"
   style="fill:#8cfff3;fill-opacity:1">
					<path
   d="M246.6,477.426c-11.4-2.1-17.7-13.5-15.6-23.9c5.2-22.9,0-34.3-6.2-48.9c-7.3-17.7-16.6-40.6,0-74.9       c5.2-10.4,16.6-14.6,27-9.4c10.4,5.2,14.6,16.6,9.4,27c-8.3,17.7-5.2,26,1,41.6c6.2,16.6,15.6,38.5,8.3,73.9       C268.4,471.226,259.7,478.726,246.6,477.426z"
   id="path14"
   style="fill:#8cfff3;fill-opacity:1" />
				</g>
				<g
   id="g20"
   style="fill:#8cfff3;fill-opacity:1">
					<path
   d="M373.5,477.426c-11.4-2.1-17.7-13.5-15.6-23.9c5.2-22.9,0-34.3-6.2-48.9c-7.3-17.7-16.6-40.6,0-74.9       c5.2-10.4,16.6-14.6,27-9.4s14.6,16.6,9.4,27c-8.3,17.7-5.2,26,1,41.6c6.2,16.6,15.6,38.5,8.3,73.9       C395.3,471.226,386.9,478.526,373.5,477.426z"
   id="path18"
   style="fill:#8cfff3;fill-opacity:1" />
				</g>
			</g>
		</g>
	</g>
</g>
<g
   id="g30">
</g>
<g
   id="g32">
</g>
<g
   id="g34">
</g>
<g
   id="g36">
</g>
<g
   id="g38">
</g>
<g
   id="g40">
</g>
<g
   id="g42">
</g>
<g
   id="g44">
</g>
<g
   id="g46">
</g>
<g
   id="g48">
</g>
<g
   id="g50">
</g>
<g
   id="g52">
</g>
<g
   id="g54">
</g>
<g
   id="g56">
</g>
<g
   id="g58">
</g>
</svg>
