<?xml version="1.0" encoding="UTF-8" standalone="no"?>
<svg
   xmlns:dc="http://purl.org/dc/elements/1.1/"
   xmlns:cc="http://creativecommons.org/ns#"
   xmlns:rdf="http://www.w3.org/1999/02/22-rdf-syntax-ns#"
   xmlns:svg="http://www.w3.org/2000/svg"
   xmlns="http://www.w3.org/2000/svg"
   xmlns:sodipodi="http://sodipodi.sourceforge.net/DTD/sodipodi-0.dtd"
   xmlns:inkscape="http://www.inkscape.org/namespaces/inkscape"
   version="1.1"
   id="Layer_1"
   x="0px"
   y="0px"
   viewBox="0 0 512 685"
   xml:space="preserve"
   sodipodi:docname="female-gender-svgrepo-com.svg"
   inkscape:version="1.0.2 (e86c870879, 2021-01-15, custom)"
   width="512"
   height="685"><metadata
   id="metadata43"><rdf:RDF><cc:Work
       rdf:about=""><dc:format>image/svg+xml</dc:format><dc:type
         rdf:resource="http://purl.org/dc/dcmitype/StillImage" /><dc:title /></cc:Work></rdf:RDF></metadata><defs
   id="defs41" /><sodipodi:namedview
   pagecolor="#ffffff"
   bordercolor="#666666"
   borderopacity="1"
   objecttolerance="10"
   gridtolerance="10"
   guidetolerance="10"
   inkscape:pageopacity="0"
   inkscape:pageshadow="2"
   inkscape:window-width="1920"
   inkscape:window-height="1027"
   id="namedview39"
   showgrid="false"
   inkscape:zoom="1"
   inkscape:cx="120.72473"
   inkscape:cy="356.44512"
   inkscape:window-x="-8"
   inkscape:window-y="-8"
   inkscape:window-maximized="1"
   inkscape:current-layer="g6"
   inkscape:document-rotation="0"
   showguides="true" />
<g
   id="g6"
   transform="matrix(1.2125,0,0,1.2125,-57.4,43)">
	<g
   id="g4"
   transform="matrix(0.94791666,0,0,0.94791666,5.0859106,0.08591065)">
		<path
   d="M 414.35052,160 C 414.35052,71.776 344.224,1.6494845 256,1.6494845 167.776,1.6494845 97.649485,71.776 97.649485,160 c 0,84.619 66.132995,152.28152 149.332995,157.80652 v 99.84296 H 192 c -5.891,0 -10.667,3.12652 -10.667,9.01752 0,5.891 4.77865,8.84086 10.667,9.01752 h 54.98248 V 501.334 c 0,5.891 3.12652,10.667 9.01752,10.667 5.891,0 9.01751,-4.776 9.01751,-10.667 l 10e-6,-65.64948 H 320 c 5.891,0 10.667,-3.12652 10.667,-9.01752 0,-5.891 -4.77865,-8.84086 -10.667,-9.01752 h -54.98248 v -99.84296 c 83.2,-5.525 149.333,-73.18752 149.333,-157.80652 z M 256,300.31648 C 179.451,300.23348 115.76652,236.549 115.68352,160 115.68352,83.417 179.416,19.683515 256,19.683515 332.584,19.683515 396.31648,83.417 396.31648,160 396.31648,236.583 332.583,300.31648 256,300.31648 Z"
   id="path2"
   sodipodi:nodetypes="sssccssscssscsssccsccssc"
   style="fill:#482b08;fill-opacity:0.15" />
	</g>
</g>
<g
   id="g8">
</g>
<g
   id="g10">
</g>
<g
   id="g12">
</g>
<g
   id="g14">
</g>
<g
   id="g16">
</g>
<g
   id="g18">
</g>
<g
   id="g20">
</g>
<g
   id="g22">
</g>
<g
   id="g24">
</g>
<g
   id="g26">
</g>
<g
   id="g28">
</g>
<g
   id="g30">
</g>
<g
   id="g32">
</g>
<g
   id="g34">
</g>
<g
   id="g36">
</g>
</svg>
