<?xml version="1.0" encoding="UTF-8" standalone="no"?>
<svg
   xmlns:dc="http://purl.org/dc/elements/1.1/"
   xmlns:cc="http://creativecommons.org/ns#"
   xmlns:rdf="http://www.w3.org/1999/02/22-rdf-syntax-ns#"
   xmlns:svg="http://www.w3.org/2000/svg"
   xmlns="http://www.w3.org/2000/svg"
   xmlns:sodipodi="http://sodipodi.sourceforge.net/DTD/sodipodi-0.dtd"
   xmlns:inkscape="http://www.inkscape.org/namespaces/inkscape"
   version="1.1"
   id="Capa_1"
   x="0px"
   y="0px"
   width="493.971px"
   height="493.971px"
   viewBox="0 0 493.971 493.971"
   style="enable-background:new 0 0 493.971 493.971;"
   xml:space="preserve"
   sodipodi:docname="heat.svg"
   inkscape:version="1.0.2-2 (e86c870879, 2021-01-15)"><metadata
   id="metadata41"><rdf:RDF><cc:Work
       rdf:about=""><dc:format>image/svg+xml</dc:format><dc:type
         rdf:resource="http://purl.org/dc/dcmitype/StillImage" /></cc:Work></rdf:RDF></metadata><defs
   id="defs39" /><sodipodi:namedview
   pagecolor="#ffffff"
   bordercolor="#666666"
   borderopacity="1"
   objecttolerance="10"
   gridtolerance="10"
   guidetolerance="10"
   inkscape:pageopacity="0"
   inkscape:pageshadow="2"
   inkscape:window-width="3840"
   inkscape:window-height="2066"
   id="namedview37"
   showgrid="false"
   inkscape:zoom="2.0406056"
   inkscape:cx="246.9855"
   inkscape:cy="246.9855"
   inkscape:window-x="-11"
   inkscape:window-y="-11"
   inkscape:window-maximized="1"
   inkscape:current-layer="g4" />
<g
   id="g4">
	<path
   d="M260.878,14.696L248.239,4.165l-0.063,0.061l-0.049-0.037l-11.923,10.275L55.691,169.188v1.087L0,218.354l24.366,28.232   l31.319-27.048v270.267h390.37V215.721l24.192,19.948l23.724-28.777L260.878,14.696z M408.777,452.51H324.43   c7.131-7.88,12.282-16.544,15.168-26.037c7.588-24.905,2.99-57.396-20.52-91.483c-6.863-9.956-13.227-17.537-20.149-24.369   c-12.665-12.471-23.602-23.248-23.577-50.747l0.012-1.833l-1.011,1.522c-12.641,19.022-9.158,42.277-6.101,62.785   c3.55,23.729,6.612,44.231-14.821,52.8c-2.046,0.565-4.107,0.857-6.142,0.857l0,0c-8.789-0.006-16.51-5.455-20.657-14.57   c-4.481-9.883-14.397-47.496,46.296-116.863c37.053-44.957,31.006-78.222,27.432-97.762   c-7.897,46.847-72.753,103.217-72.753,103.217c-30.945,34.69-62.953,70.568-73.277,111.706c-7.49,36.413-2.195,66.03,15.731,88.019   c0.792,0.969,1.739,1.827,2.582,2.759H93V187.352L248.611,53.037l160.178,133.459V452.51H408.777z"
   id="path2"
   style="stroke:#8cfff3;stroke-opacity:1;fill:#8cfff3;fill-opacity:1" />
</g>
<g
   id="g6">
</g>
<g
   id="g8">
</g>
<g
   id="g10">
</g>
<g
   id="g12">
</g>
<g
   id="g14">
</g>
<g
   id="g16">
</g>
<g
   id="g18">
</g>
<g
   id="g20">
</g>
<g
   id="g22">
</g>
<g
   id="g24">
</g>
<g
   id="g26">
</g>
<g
   id="g28">
</g>
<g
   id="g30">
</g>
<g
   id="g32">
</g>
<g
   id="g34">
</g>
</svg>
